<svg width="685" height="706" viewBox="0 0 685 706" fill="none" xmlns="http://www.w3.org/2000/svg">
<path d="M90 240H27.3718L23.4615 239.5L19.5513 239L16.6186 238L13.1971 236L10.7532 234L8.79808 232L7.33173 230.5L5.86538 228.5L4.88782 227L3.91026 225.5L2.93269 223.5L1.95513 220.5L1.46635 219L0.977564 217.5L0.488782 214V211V142L0.977564 138L1.46635 135L2.44391 132L3.42147 129L4.39904 127L5.3766 125L6.84295 123L8.79808 120.5L11.7308 118.5L14.6635 116.5L19.0625 114.5L23.4615 113.5L28.3494 112.5L35.1923 112H42.0353H87.0032V31L87.492 28L87.9808 23.5L89.4471 19L91.891 14L96.7788 8L101.178 4.5L106.554 2L112.42 0.5L117.308 0H183.782L191.603 1L195.024 2L197.957 4L202.356 7.5L206.266 12L208.221 15L210.665 20L211.643 24L212.131 30V115H277.139L287.404 117L292.292 119.5L295.224 121.5L297.668 124L299.623 126L302.067 129L303.534 132L304.511 136L305 139L305.489 143V213V218L304.511 222L303.045 226L301.09 229.5L298.646 233L295.224 235.5L292.292 237.5L289.359 239L284.471 240H272.252H200H191.5V289.5V364V432.5L193 441.5L194.5 450L196 457L198 465L200.5 472L202.989 479L186.989 467H95.9888L93.4888 456L91.4888 443.5L90.5 429L90 418V406.943V240Z" fill="white"/>
<path fill-rule="evenodd" clip-rule="evenodd" d="M90.0503 414.251C90.5246 440.234 94.3525 465.401 101.121 489.34C136.347 613.93 251.223 705.251 387.5 705.251C551.805 705.251 685 572.503 685 408.751C685 289.169 613.97 186.122 511.665 139.23C495.351 131.753 478.243 125.704 460.5 121.243C452.944 119.343 445.273 117.732 437.5 116.42C432.377 115.556 427.208 114.823 421.999 114.223V215.222C426.776 216.056 431.483 217.06 436.117 218.225C521.946 239.804 585 317.236 585 408.751C585 516.958 496.894 605.251 387.5 605.251C279.966 605.251 193.002 519.934 190.076 414.251H90.0503Z" fill="white"/>
<path d="M362.97 128.028L364.095 125.222L365.596 122.417L367.472 120.413L369.723 118.81L371.598 117.206L374.225 116.004L376.476 115.202L378.539 114.802L383.5 114.401L389.5 114H413.5H421.5L431 114.802L432 215H396.359L380.978 214.599L377.226 214.198L374.225 213.397L371.223 211.794L368.972 209.79L367.096 207.786L365.221 205.782L363.72 203.778L362.594 201.373L361.844 199.77L361.469 198.167L361.094 156.484L361 146.063V141.254L361.094 138.048L361.469 134.44L362.219 131.234L362.97 128.028Z" fill="white"/>
</svg>
