<svg width="97" height="42" viewBox="0 0 97 42" fill="none" xmlns="http://www.w3.org/2000/svg">
<g filter="url(#filter0_d_37_20)">
<rect width="22" height="6.1" fill="#343A46"/>
<rect width="22" height="6.1" fill="white"/>
<rect x="7" y="6" width="8" height="35" fill="#343A46"/>
<rect x="7" y="6" width="8" height="35" fill="white"/>
<rect x="27" width="8" height="41" fill="#343A46"/>
<rect x="27" width="8" height="41" fill="white"/>
<rect x="82.0195" y="8.10156" width="8" height="14.9877" transform="rotate(-90.1419 82.0195 8.10156)" fill="#343A46"/>
<rect x="82.0195" y="8.10156" width="8" height="14.9877" transform="rotate(-90.1419 82.0195 8.10156)" fill="white"/>
<rect x="82.0195" y="25.0371" width="8" height="14.9877" transform="rotate(-90.1419 82.0195 25.0371)" fill="#343A46"/>
<rect x="82.0195" y="25.0371" width="8" height="14.9877" transform="rotate(-90.1419 82.0195 25.0371)" fill="white"/>
<rect x="82.0195" y="41.0371" width="8" height="14.9877" transform="rotate(-90.1419 82.0195 41.0371)" fill="#343A46"/>
<rect x="82.0195" y="41.0371" width="8" height="14.9877" transform="rotate(-90.1419 82.0195 41.0371)" fill="white"/>
<rect x="69" width="8" height="41" fill="#343A46"/>
<rect x="69" width="8" height="41" fill="white"/>
<path d="M44 0H58.8337L51.3337 18L44 0Z" fill="white"/>
<path d="M52.0005 41.0001L44.0193 41.0007L44.0211 22.0589L52.0005 41.0001Z" fill="white"/>
<path d="M60.0282 40.9614L52.047 40.961L60.0272 22L60.0282 40.9614Z" fill="white"/>
</g>
<defs>
<filter id="filter0_d_37_20" x="0" y="0" width="97.0068" height="41.0371" filterUnits="userSpaceOnUse" color-interpolation-filters="sRGB">
<feFlood flood-opacity="0" result="BackgroundImageFix"/>
<feColorMatrix in="SourceAlpha" type="matrix" values="0 0 0 0 0 0 0 0 0 0 0 0 0 0 0 0 0 0 127 0" result="hardAlpha"/>
<feOffset/>
<feComposite in2="hardAlpha" operator="out"/>
<feColorMatrix type="matrix" values="0 0 0 0 0 0 0 0 0 0 0 0 0 0 0 0 0 0 0.25 0"/>
<feBlend mode="normal" in2="BackgroundImageFix" result="effect1_dropShadow_37_20"/>
<feBlend mode="normal" in="SourceGraphic" in2="effect1_dropShadow_37_20" result="shape"/>
</filter>
</defs>
</svg>
