<svg width="684" height="707" viewBox="0 0 684 707" fill="none" xmlns="http://www.w3.org/2000/svg">
<path d="M88.5002 240H27.5L23.5 239.5L19.5 239L16.5 238L13 236L10.5 234L8.5 232L7 230.5L5.5 228.5L4.5 227L3.5 225.5L2.5 223.5L1.5 220.5L1 219L0.5 217.5L0 214V211V142L0.5 138L1 135L2 132L3 129L4 127L5 125L6.5 123L8.5 120.5L11.5 118.5L14.5 116.5L19 114.5L23.5 113.5L28.5 112.5L35.5 112H42.5H88.5V31L89 28L89.5 23.5L91 19L93.5 14L98.5 8L103 4.5L108.5 2L114.5 0.5L119.5 0H187.5L195.5 1L199 2L202 4L206.5 7.5L210.5 12L212.5 15L215 20L216 24L216.5 30V115H283L293.5 117L298.5 119.5L301.5 121.5L304 124L306 126L308.5 129L310 132L311 136L311.5 139L312 143V213V218L311 222L309.5 226L307.5 229.5L305 233L301.5 235.5L298.5 237.5L295.5 239L290.5 240H278H215.5V353.5V410.25V420L216.5 434.5L218.5 447.5L221 461L222.5 468L215.5 467H94L92 456.5L90.5 443.5L89.5 429L88.5002 407V240Z" fill="white"/>
<path fill-rule="evenodd" clip-rule="evenodd" d="M89.0498 415.251C89.4029 434.594 91.6144 453.483 95.5138 471.751C124.116 605.74 243.53 706.251 386.5 706.251C550.804 706.251 684 573.504 684 409.751C684 293.205 616.53 192.364 518.394 143.909C499.782 134.719 480.067 127.414 459.5 122.243C455.859 121.328 452.192 120.479 448.5 119.699C442.742 118.483 436.924 117.432 431.049 116.553C427.058 115.956 423.041 115.438 419 115V241.551L441.422 246.035C510.592 268.933 560 333.921 560 409.751C560 504.627 482.715 582.251 386.5 582.251C300.41 582.251 229.477 520.106 215.5 439.062V415.251H89.0498Z" fill="white"/>
<path d="M360.47 132.5L361.595 129L363.096 125.5L364.972 123L367.223 121L369.098 119L371.725 117.5L373.976 116.5L376.039 116L381 115.5L387 115H411H419L428.5 116L429.5 241H393.859L378.478 240.5L374.726 240L371.725 239L368.723 237L366.472 234.5L364.596 232L362.721 229.5L361.22 227L360.094 224L359.344 222L358.969 220L358.594 168L358.5 155V149L358.594 145L358.969 140.5L359.719 136.5L360.47 132.5Z" fill="white"/>
</svg>
